<?xml version="1.0" encoding="utf-8" standalone="no"?>
<!DOCTYPE svg PUBLIC "-//W3C//DTD SVG 1.1//EN"
  "http://www.w3.org/Graphics/SVG/1.1/DTD/svg11.dtd">
<svg xmlns:xlink="http://www.w3.org/1999/xlink" width="792pt" height="331.2pt" viewBox="0 0 792 331.2" xmlns="http://www.w3.org/2000/svg" version="1.1">
 <metadata>
  <rdf:RDF xmlns:dc="http://purl.org/dc/elements/1.1/" xmlns:cc="http://creativecommons.org/ns#" xmlns:rdf="http://www.w3.org/1999/02/22-rdf-syntax-ns#">
   <cc:Work>
    <dc:type rdf:resource="http://purl.org/dc/dcmitype/StillImage"/>
    <dc:date>2026-07-23T20:38:55.903805</dc:date>
    <dc:format>image/svg+xml</dc:format>
    <dc:creator>
     <cc:Agent>
      <dc:title>Matplotlib v3.11.0, https://matplotlib.org/</dc:title>
     </cc:Agent>
    </dc:creator>
   </cc:Work>
  </rdf:RDF>
 </metadata>
 <defs>
  <style type="text/css">*{stroke-linejoin: round; stroke-linecap: butt}</style>
 </defs>
 <g id="figure_1">
  <g id="patch_1">
   <path d="M 0 331.2 
L 792 331.2 
L 792 0 
L 0 0 
z
" style="fill: #ffffff"/>
  </g>
  <g id="axes_1">
   <g id="patch_2">
    <path d="M 55.44 284.832 
L 362.681379 284.832 
L 362.681379 46.368 
L 55.44 46.368 
z
" style="fill: #ffffff"/>
   </g>
   <g id="patch_3">
    <path d="M 69.405517 284.832 
L 112.678951 284.832 
L 112.678951 232.821801 
L 69.405517 232.821801 
z
" clip-path="url(#p4ca52d60d2)" style="fill: #2d5f8a"/>
   </g>
   <g id="patch_4">
    <path d="M 148.084488 284.832 
L 191.357921 284.832 
L 191.357921 198.312003 
L 148.084488 198.312003 
z
" clip-path="url(#p4ca52d60d2)" style="fill: #2d5f8a"/>
   </g>
   <g id="patch_5">
    <path d="M 226.763458 284.832 
L 270.036892 284.832 
L 270.036892 223.45477 
L 226.763458 223.45477 
z
" clip-path="url(#p4ca52d60d2)" style="fill: #2d5f8a"/>
   </g>
   <g id="patch_6">
    <path d="M 305.442428 284.832 
L 348.715862 284.832 
L 348.715862 211.19876 
L 305.442428 211.19876 
z
" clip-path="url(#p4ca52d60d2)" style="fill: #2d5f8a"/>
   </g>
   <g id="matplotlib.axis_1">
    <g id="xtick_1">
     <g id="line2d_1">
      <defs>
       <path id="m5e0291a04e" d="M 0 0 
L 0 3.5 
" style="stroke: #454545; stroke-width: 0.8"/>
      </defs>
      <g>
       <use xlink:href="#m5e0291a04e" x="91.042234" y="284.832" style="fill: #454545; stroke: #454545; stroke-width: 0.8"/>
      </g>
     </g>
     <g id="text_1">
      <!-- &lt;= 40% -->
      <g style="fill: #454545" transform="translate(74.667351 298.957) scale(0.095 -0.095)">
       <defs>
        <path id="Helvetica-1f" d="M 88 1894 
L 3741 3325 
L 3741 2763 
L 753 1634 
L 3741 503 
L 3741 -59 
L 88 1375 
L 88 1894 
z
" transform="scale(0.015625)"/>
        <path id="Helvetica-20" d="M 3547 2569 
L 3547 2044 
L 288 2044 
L 288 2569 
L 3547 2569 
z
M 3547 1228 
L 3547 694 
L 288 694 
L 288 1228 
L 3547 1228 
z
" transform="scale(0.015625)"/>
        <path id="Helvetica-3" transform="scale(0.015625)"/>
        <path id="Helvetica-17" d="M 2116 1584 
L 2116 3613 
L 681 1584 
L 2116 1584 
z
M 2125 0 
L 2125 1094 
L 163 1094 
L 163 1644 
L 2213 4488 
L 2688 4488 
L 2688 1584 
L 3347 1584 
L 3347 1094 
L 2688 1094 
L 2688 0 
L 2125 0 
z
" transform="scale(0.015625)"/>
        <path id="Helvetica-13" d="M 1731 4475 
Q 2600 4475 2988 3759 
Q 3288 3206 3288 2244 
Q 3288 1331 3016 734 
Q 2622 -122 1728 -122 
Q 922 -122 528 578 
Q 200 1163 200 2147 
Q 200 2909 397 3456 
Q 766 4475 1731 4475 
z
M 1725 391 
Q 2163 391 2422 778 
Q 2681 1166 2681 2222 
Q 2681 2984 2493 3476 
Q 2306 3969 1766 3969 
Q 1269 3969 1039 3501 
Q 809 3034 809 2125 
Q 809 1441 956 1025 
Q 1181 391 1725 391 
z
" transform="scale(0.015625)"/>
        <path id="Helvetica-8" d="M 4363 2175 
Q 4813 2175 5131 1856 
Q 5450 1538 5450 1088 
Q 5450 638 5131 319 
Q 4813 0 4363 0 
Q 3909 0 3590 319 
Q 3272 638 3272 1088 
Q 3272 1538 3590 1856 
Q 3909 2175 4363 2175 
z
M 3909 4456 
L 4256 4456 
L 1753 -119 
L 1406 -119 
L 3909 4456 
z
M 1294 2606 
Q 1563 2606 1752 2795 
Q 1941 2984 1941 3250 
Q 1941 3516 1752 3705 
Q 1563 3894 1294 3894 
Q 1028 3894 839 3706 
Q 650 3519 650 3250 
Q 650 2984 839 2795 
Q 1028 2606 1294 2606 
z
M 1294 4341 
Q 1747 4341 2065 4020 
Q 2384 3700 2384 3250 
Q 2384 2800 2065 2481 
Q 1747 2163 1294 2163 
Q 844 2163 525 2481 
Q 206 2800 206 3250 
Q 206 3700 525 4020 
Q 844 4341 1294 4341 
z
M 4363 444 
Q 4628 444 4817 633 
Q 5006 822 5006 1088 
Q 5006 1353 4817 1542 
Q 4628 1731 4363 1731 
Q 4094 1731 3905 1542 
Q 3716 1353 3716 1088 
Q 3716 822 3905 633 
Q 4094 444 4363 444 
z
" transform="scale(0.015625)"/>
       </defs>
       <use xlink:href="#Helvetica-1f"/>
       <use xlink:href="#Helvetica-20" transform="translate(58.40625 0)"/>
       <use xlink:href="#Helvetica-3" transform="translate(116.8125 0)"/>
       <use xlink:href="#Helvetica-17" transform="translate(144.59375 0)"/>
       <use xlink:href="#Helvetica-13" transform="translate(200.203125 0)"/>
       <use xlink:href="#Helvetica-8" transform="translate(255.8125 0)"/>
      </g>
     </g>
    </g>
    <g id="xtick_2">
     <g id="line2d_2">
      <g>
       <use xlink:href="#m5e0291a04e" x="169.721204" y="284.832" style="fill: #454545; stroke: #454545; stroke-width: 0.8"/>
      </g>
     </g>
     <g id="text_2">
      <!-- &lt;= 60% -->
      <g style="fill: #454545" transform="translate(153.346322 298.957) scale(0.095 -0.095)">
       <defs>
        <path id="Helvetica-19" d="M 1872 4494 
Q 2622 4494 2917 4105 
Q 3213 3716 3213 3303 
L 2656 3303 
Q 2606 3569 2497 3719 
Q 2294 4000 1881 4000 
Q 1409 4000 1131 3564 
Q 853 3128 822 2316 
Q 1016 2600 1309 2741 
Q 1578 2866 1909 2866 
Q 2472 2866 2890 2506 
Q 3309 2147 3309 1434 
Q 3309 825 2912 354 
Q 2516 -116 1781 -116 
Q 1153 -116 697 361 
Q 241 838 241 1966 
Q 241 2800 444 3381 
Q 834 4494 1872 4494 
z
M 1831 384 
Q 2275 384 2495 682 
Q 2716 981 2716 1388 
Q 2716 1731 2519 2042 
Q 2322 2353 1803 2353 
Q 1441 2353 1167 2112 
Q 894 1872 894 1388 
Q 894 963 1142 673 
Q 1391 384 1831 384 
z
" transform="scale(0.015625)"/>
       </defs>
       <use xlink:href="#Helvetica-1f"/>
       <use xlink:href="#Helvetica-20" transform="translate(58.40625 0)"/>
       <use xlink:href="#Helvetica-3" transform="translate(116.8125 0)"/>
       <use xlink:href="#Helvetica-19" transform="translate(144.59375 0)"/>
       <use xlink:href="#Helvetica-13" transform="translate(200.203125 0)"/>
       <use xlink:href="#Helvetica-8" transform="translate(255.8125 0)"/>
      </g>
     </g>
    </g>
    <g id="xtick_3">
     <g id="line2d_3">
      <g>
       <use xlink:href="#m5e0291a04e" x="248.400175" y="284.832" style="fill: #454545; stroke: #454545; stroke-width: 0.8"/>
      </g>
     </g>
     <g id="text_3">
      <!-- &lt;= 80% -->
      <g style="fill: #454545" transform="translate(232.025292 298.957) scale(0.095 -0.095)">
       <defs>
        <path id="Helvetica-1b" d="M 1741 2600 
Q 2113 2600 2322 2808 
Q 2531 3016 2531 3303 
Q 2531 3553 2331 3762 
Q 2131 3972 1722 3972 
Q 1316 3972 1134 3762 
Q 953 3553 953 3272 
Q 953 2956 1187 2778 
Q 1422 2600 1741 2600 
z
M 1775 384 
Q 2166 384 2423 595 
Q 2681 806 2681 1225 
Q 2681 1659 2415 1884 
Q 2150 2109 1734 2109 
Q 1331 2109 1076 1879 
Q 822 1650 822 1244 
Q 822 894 1055 639 
Q 1288 384 1775 384 
z
M 975 2384 
Q 741 2484 609 2619 
Q 363 2869 363 3269 
Q 363 3769 725 4128 
Q 1088 4488 1753 4488 
Q 2397 4488 2762 4148 
Q 3128 3809 3128 3356 
Q 3128 2938 2916 2678 
Q 2797 2531 2547 2391 
Q 2825 2263 2984 2097 
Q 3281 1784 3281 1284 
Q 3281 694 2884 283 
Q 2488 -128 1763 -128 
Q 1109 -128 657 226 
Q 206 581 206 1256 
Q 206 1653 400 1942 
Q 594 2231 975 2384 
z
" transform="scale(0.015625)"/>
       </defs>
       <use xlink:href="#Helvetica-1f"/>
       <use xlink:href="#Helvetica-20" transform="translate(58.40625 0)"/>
       <use xlink:href="#Helvetica-3" transform="translate(116.8125 0)"/>
       <use xlink:href="#Helvetica-1b" transform="translate(144.59375 0)"/>
       <use xlink:href="#Helvetica-13" transform="translate(200.203125 0)"/>
       <use xlink:href="#Helvetica-8" transform="translate(255.8125 0)"/>
      </g>
     </g>
    </g>
    <g id="xtick_4">
     <g id="line2d_4">
      <g>
       <use xlink:href="#m5e0291a04e" x="327.079145" y="284.832" style="fill: #454545; stroke: #454545; stroke-width: 0.8"/>
      </g>
     </g>
     <g id="text_4">
      <!-- &lt;= 99% -->
      <g style="fill: #454545" transform="translate(310.704262 298.957) scale(0.095 -0.095)">
       <defs>
        <path id="Helvetica-1c" d="M 850 1081 
Q 875 616 1209 438 
Q 1381 344 1597 344 
Q 2000 344 2284 680 
Q 2569 1016 2688 2044 
Q 2500 1747 2223 1626 
Q 1947 1506 1628 1506 
Q 981 1506 604 1909 
Q 228 2313 228 2947 
Q 228 3556 600 4018 
Q 972 4481 1697 4481 
Q 2675 4481 3047 3600 
Q 3253 3116 3253 2388 
Q 3253 1566 3006 931 
Q 2597 -125 1619 -125 
Q 963 -125 622 219 
Q 281 563 281 1081 
L 850 1081 
z
M 1703 2000 
Q 2038 2000 2314 2220 
Q 2591 2441 2591 2991 
Q 2591 3484 2342 3726 
Q 2094 3969 1709 3969 
Q 1297 3969 1055 3692 
Q 813 3416 813 2953 
Q 813 2516 1025 2258 
Q 1238 2000 1703 2000 
z
" transform="scale(0.015625)"/>
       </defs>
       <use xlink:href="#Helvetica-1f"/>
       <use xlink:href="#Helvetica-20" transform="translate(58.40625 0)"/>
       <use xlink:href="#Helvetica-3" transform="translate(116.8125 0)"/>
       <use xlink:href="#Helvetica-1c" transform="translate(144.59375 0)"/>
       <use xlink:href="#Helvetica-1c" transform="translate(200.203125 0)"/>
       <use xlink:href="#Helvetica-8" transform="translate(255.8125 0)"/>
      </g>
     </g>
    </g>
    <g id="text_5">
     <!-- Max Sequence Identity to Training Set -->
     <g style="fill: #454545" transform="translate(128.790885 311.696258) scale(0.095 -0.095)">
      <defs>
       <path id="Helvetica-30" d="M 472 4591 
L 1363 4591 
L 2681 709 
L 3991 4591 
L 4872 4591 
L 4872 0 
L 4281 0 
L 4281 2709 
Q 4281 2850 4287 3175 
Q 4294 3500 4294 3872 
L 2984 0 
L 2369 0 
L 1050 3872 
L 1050 3731 
Q 1050 3563 1058 3217 
Q 1066 2872 1066 2709 
L 1066 0 
L 472 0 
L 472 4591 
z
" transform="scale(0.015625)"/>
       <path id="Helvetica-44" d="M 844 891 
Q 844 647 1022 506 
Q 1200 366 1444 366 
Q 1741 366 2019 503 
Q 2488 731 2488 1250 
L 2488 1703 
Q 2384 1638 2221 1594 
Q 2059 1550 1903 1531 
L 1563 1488 
Q 1256 1447 1103 1359 
Q 844 1213 844 891 
z
M 2206 2028 
Q 2400 2053 2466 2191 
Q 2503 2266 2503 2406 
Q 2503 2694 2298 2823 
Q 2094 2953 1713 2953 
Q 1272 2953 1088 2716 
Q 984 2584 953 2325 
L 428 2325 
Q 444 2944 830 3186 
Q 1216 3428 1725 3428 
Q 2316 3428 2684 3203 
Q 3050 2978 3050 2503 
L 3050 575 
Q 3050 488 3086 434 
Q 3122 381 3238 381 
Q 3275 381 3322 386 
Q 3369 391 3422 400 
L 3422 -16 
Q 3291 -53 3222 -62 
Q 3153 -72 3034 -72 
Q 2744 -72 2613 134 
Q 2544 244 2516 444 
Q 2344 219 2022 53 
Q 1700 -113 1313 -113 
Q 847 -113 551 170 
Q 256 453 256 878 
Q 256 1344 547 1600 
Q 838 1856 1309 1916 
L 2206 2028 
z
M 1741 3428 
L 1741 3428 
z
" transform="scale(0.015625)"/>
       <path id="Helvetica-5b" d="M 94 3347 
L 822 3347 
L 1591 2169 
L 2369 3347 
L 3053 3331 
L 1925 1716 
L 3103 0 
L 2384 0 
L 1553 1256 
L 747 0 
L 34 0 
L 1213 1716 
L 94 3347 
z
" transform="scale(0.015625)"/>
       <path id="Helvetica-36" d="M 894 1481 
Q 916 1091 1078 847 
Q 1388 391 2169 391 
Q 2519 391 2806 491 
Q 3363 684 3363 1184 
Q 3363 1559 3128 1719 
Q 2891 1875 2384 1991 
L 1763 2131 
Q 1153 2269 900 2434 
Q 463 2722 463 3294 
Q 463 3913 891 4309 
Q 1319 4706 2103 4706 
Q 2825 4706 3329 4357 
Q 3834 4009 3834 3244 
L 3250 3244 
Q 3203 3613 3050 3809 
Q 2766 4169 2084 4169 
Q 1534 4169 1293 3937 
Q 1053 3706 1053 3400 
Q 1053 3063 1334 2906 
Q 1519 2806 2169 2656 
L 2813 2509 
Q 3278 2403 3531 2219 
Q 3969 1897 3969 1284 
Q 3969 522 3414 194 
Q 2859 -134 2125 -134 
Q 1269 -134 784 303 
Q 300 738 309 1481 
L 894 1481 
z
M 2150 4716 
L 2150 4716 
z
" transform="scale(0.015625)"/>
       <path id="Helvetica-48" d="M 1806 3422 
Q 2163 3422 2497 3255 
Q 2831 3088 3006 2822 
Q 3175 2569 3231 2231 
Q 3281 2000 3281 1494 
L 828 1494 
Q 844 984 1069 676 
Q 1294 369 1766 369 
Q 2206 369 2469 659 
Q 2619 828 2681 1050 
L 3234 1050 
Q 3213 866 3089 639 
Q 2966 413 2813 269 
Q 2556 19 2178 -69 
Q 1975 -119 1719 -119 
Q 1094 -119 659 336 
Q 225 791 225 1609 
Q 225 2416 662 2919 
Q 1100 3422 1806 3422 
z
M 2703 1941 
Q 2669 2306 2544 2525 
Q 2313 2931 1772 2931 
Q 1384 2931 1121 2651 
Q 859 2372 844 1941 
L 2703 1941 
z
M 1753 3428 
L 1753 3428 
z
" transform="scale(0.015625)"/>
       <path id="Helvetica-54" d="M 775 1628 
Q 775 1194 897 900 
Q 1113 378 1669 378 
Q 2256 378 2478 928 
Q 2600 1231 2600 1703 
Q 2600 2138 2466 2428 
Q 2238 2925 1663 2925 
Q 1297 2925 1036 2608 
Q 775 2291 775 1628 
z
M 1606 3422 
Q 2022 3422 2306 3213 
Q 2463 3100 2606 2881 
L 2606 3347 
L 3141 3347 
L 3141 -1334 
L 2575 -1334 
L 2575 384 
Q 2434 159 2186 26 
Q 1938 -106 1566 -106 
Q 1031 -106 609 312 
Q 188 731 188 1588 
Q 188 2391 583 2906 
Q 978 3422 1606 3422 
z
" transform="scale(0.015625)"/>
       <path id="Helvetica-58" d="M 975 3347 
L 975 1125 
Q 975 869 1056 706 
Q 1206 406 1616 406 
Q 2203 406 2416 931 
Q 2531 1213 2531 1703 
L 2531 3347 
L 3094 3347 
L 3094 0 
L 2563 0 
L 2569 494 
Q 2459 303 2297 172 
Q 1975 -91 1516 -91 
Q 800 -91 541 388 
Q 400 644 400 1072 
L 400 3347 
L 975 3347 
z
M 1747 3428 
L 1747 3428 
z
" transform="scale(0.015625)"/>
       <path id="Helvetica-51" d="M 413 3347 
L 947 3347 
L 947 2872 
Q 1184 3166 1450 3294 
Q 1716 3422 2041 3422 
Q 2753 3422 3003 2925 
Q 3141 2653 3141 2147 
L 3141 0 
L 2569 0 
L 2569 2109 
Q 2569 2416 2478 2603 
Q 2328 2916 1934 2916 
Q 1734 2916 1606 2875 
Q 1375 2806 1200 2600 
Q 1059 2434 1017 2257 
Q 975 2081 975 1753 
L 975 0 
L 413 0 
L 413 3347 
z
M 1734 3428 
L 1734 3428 
z
" transform="scale(0.015625)"/>
       <path id="Helvetica-46" d="M 1703 3444 
Q 2269 3444 2623 3169 
Q 2978 2894 3050 2222 
L 2503 2222 
Q 2453 2531 2275 2736 
Q 2097 2941 1703 2941 
Q 1166 2941 934 2416 
Q 784 2075 784 1575 
Q 784 1072 996 728 
Q 1209 384 1666 384 
Q 2016 384 2220 598 
Q 2425 813 2503 1184 
L 3050 1184 
Q 2956 519 2581 211 
Q 2206 -97 1622 -97 
Q 966 -97 575 383 
Q 184 863 184 1581 
Q 184 2463 612 2953 
Q 1041 3444 1703 3444 
z
M 1616 3428 
L 1616 3428 
z
" transform="scale(0.015625)"/>
       <path id="Helvetica-2c" d="M 628 4591 
L 1256 4591 
L 1256 0 
L 628 0 
L 628 4591 
z
" transform="scale(0.015625)"/>
       <path id="Helvetica-47" d="M 769 1634 
Q 769 1097 997 734 
Q 1225 372 1728 372 
Q 2119 372 2370 708 
Q 2622 1044 2622 1672 
Q 2622 2306 2362 2611 
Q 2103 2916 1722 2916 
Q 1297 2916 1033 2591 
Q 769 2266 769 1634 
z
M 1616 3406 
Q 2000 3406 2259 3244 
Q 2409 3150 2600 2916 
L 2600 4606 
L 3141 4606 
L 3141 0 
L 2634 0 
L 2634 466 
Q 2438 156 2169 18 
Q 1900 -119 1553 -119 
Q 994 -119 584 351 
Q 175 822 175 1603 
Q 175 2334 548 2870 
Q 922 3406 1616 3406 
z
" transform="scale(0.015625)"/>
       <path id="Helvetica-57" d="M 525 4281 
L 1094 4281 
L 1094 3347 
L 1628 3347 
L 1628 2888 
L 1094 2888 
L 1094 703 
Q 1094 528 1213 469 
Q 1278 434 1431 434 
Q 1472 434 1519 436 
Q 1566 438 1628 444 
L 1628 0 
Q 1531 -28 1426 -40 
Q 1322 -53 1200 -53 
Q 806 -53 665 148 
Q 525 350 525 672 
L 525 2888 
L 72 2888 
L 72 3347 
L 525 3347 
L 525 4281 
z
" transform="scale(0.015625)"/>
       <path id="Helvetica-4c" d="M 413 3331 
L 984 3331 
L 984 0 
L 413 0 
L 413 3331 
z
M 413 4591 
L 984 4591 
L 984 3953 
L 413 3953 
L 413 4591 
z
" transform="scale(0.015625)"/>
       <path id="Helvetica-5c" d="M 2503 3347 
L 3125 3347 
Q 3006 3025 2597 1878 
Q 2291 1016 2084 472 
Q 1597 -809 1397 -1090 
Q 1197 -1372 709 -1372 
Q 591 -1372 527 -1362 
Q 463 -1353 369 -1328 
L 369 -816 
Q 516 -856 581 -865 
Q 647 -875 697 -875 
Q 853 -875 926 -823 
Q 1000 -772 1050 -697 
Q 1066 -672 1162 -440 
Q 1259 -209 1303 -97 
L 66 3347 
L 703 3347 
L 1600 622 
L 2503 3347 
z
M 1597 3428 
L 1597 3428 
z
" transform="scale(0.015625)"/>
       <path id="Helvetica-52" d="M 1741 363 
Q 2300 363 2508 786 
Q 2716 1209 2716 1728 
Q 2716 2197 2566 2491 
Q 2328 2953 1747 2953 
Q 1231 2953 997 2559 
Q 763 2166 763 1609 
Q 763 1075 997 719 
Q 1231 363 1741 363 
z
M 1763 3444 
Q 2409 3444 2856 3012 
Q 3303 2581 3303 1744 
Q 3303 934 2909 406 
Q 2516 -122 1688 -122 
Q 997 -122 590 345 
Q 184 813 184 1600 
Q 184 2444 612 2944 
Q 1041 3444 1763 3444 
z
M 1744 3428 
L 1744 3428 
z
" transform="scale(0.015625)"/>
       <path id="Helvetica-37" d="M 3828 4591 
L 3828 4044 
L 2281 4044 
L 2281 0 
L 1650 0 
L 1650 4044 
L 103 4044 
L 103 4591 
L 3828 4591 
z
" transform="scale(0.015625)"/>
       <path id="Helvetica-55" d="M 428 3347 
L 963 3347 
L 963 2769 
Q 1028 2938 1284 3180 
Q 1541 3422 1875 3422 
Q 1891 3422 1928 3419 
Q 1966 3416 2056 3406 
L 2056 2813 
Q 2006 2822 1964 2825 
Q 1922 2828 1872 2828 
Q 1447 2828 1219 2554 
Q 991 2281 991 1925 
L 991 0 
L 428 0 
L 428 3347 
z
" transform="scale(0.015625)"/>
       <path id="Helvetica-4a" d="M 1594 3406 
Q 1988 3406 2281 3213 
Q 2441 3103 2606 2894 
L 2606 3316 
L 3125 3316 
L 3125 272 
Q 3125 -366 2938 -734 
Q 2588 -1416 1616 -1416 
Q 1075 -1416 706 -1173 
Q 338 -931 294 -416 
L 866 -416 
Q 906 -641 1028 -763 
Q 1219 -950 1628 -950 
Q 2275 -950 2475 -494 
Q 2594 -225 2584 466 
Q 2416 209 2178 84 
Q 1941 -41 1550 -41 
Q 1006 -41 598 345 
Q 191 731 191 1622 
Q 191 2463 602 2934 
Q 1013 3406 1594 3406 
z
M 2606 1688 
Q 2606 2309 2350 2609 
Q 2094 2909 1697 2909 
Q 1103 2909 884 2353 
Q 769 2056 769 1575 
Q 769 1009 998 714 
Q 1228 419 1616 419 
Q 2222 419 2469 966 
Q 2606 1275 2606 1688 
z
M 1659 3428 
L 1659 3428 
z
" transform="scale(0.015625)"/>
      </defs>
      <use xlink:href="#Helvetica-30"/>
      <use xlink:href="#Helvetica-44" transform="translate(83.296875 0)"/>
      <use xlink:href="#Helvetica-5b" transform="translate(138.90625 0)"/>
      <use xlink:href="#Helvetica-3" transform="translate(188.90625 0)"/>
      <use xlink:href="#Helvetica-36" transform="translate(216.6875 0)"/>
      <use xlink:href="#Helvetica-48" transform="translate(283.390625 0)"/>
      <use xlink:href="#Helvetica-54" transform="translate(339 0)"/>
      <use xlink:href="#Helvetica-58" transform="translate(394.609375 0)"/>
      <use xlink:href="#Helvetica-48" transform="translate(450.21875 0)"/>
      <use xlink:href="#Helvetica-51" transform="translate(505.828125 0)"/>
      <use xlink:href="#Helvetica-46" transform="translate(561.4375 0)"/>
      <use xlink:href="#Helvetica-48" transform="translate(611.4375 0)"/>
      <use xlink:href="#Helvetica-3" transform="translate(667.046875 0)"/>
      <use xlink:href="#Helvetica-2c" transform="translate(694.828125 0)"/>
      <use xlink:href="#Helvetica-47" transform="translate(722.609375 0)"/>
      <use xlink:href="#Helvetica-48" transform="translate(778.21875 0)"/>
      <use xlink:href="#Helvetica-51" transform="translate(833.828125 0)"/>
      <use xlink:href="#Helvetica-57" transform="translate(889.4375 0)"/>
      <use xlink:href="#Helvetica-4c" transform="translate(917.21875 0)"/>
      <use xlink:href="#Helvetica-57" transform="translate(939.4375 0)"/>
      <use xlink:href="#Helvetica-5c" transform="translate(967.21875 0)"/>
      <use xlink:href="#Helvetica-3" transform="translate(1017.21875 0)"/>
      <use xlink:href="#Helvetica-57" transform="translate(1045 0)"/>
      <use xlink:href="#Helvetica-52" transform="translate(1072.78125 0)"/>
      <use xlink:href="#Helvetica-3" transform="translate(1128.390625 0)"/>
      <use xlink:href="#Helvetica-37" transform="translate(1154.421875 0)"/>
      <use xlink:href="#Helvetica-55" transform="translate(1211.84375 0)"/>
      <use xlink:href="#Helvetica-44" transform="translate(1245.140625 0)"/>
      <use xlink:href="#Helvetica-4c" transform="translate(1300.75 0)"/>
      <use xlink:href="#Helvetica-51" transform="translate(1322.96875 0)"/>
      <use xlink:href="#Helvetica-4c" transform="translate(1378.578125 0)"/>
      <use xlink:href="#Helvetica-51" transform="translate(1400.796875 0)"/>
      <use xlink:href="#Helvetica-4a" transform="translate(1456.40625 0)"/>
      <use xlink:href="#Helvetica-3" transform="translate(1512.015625 0)"/>
      <use xlink:href="#Helvetica-36" transform="translate(1539.796875 0)"/>
      <use xlink:href="#Helvetica-48" transform="translate(1606.5 0)"/>
      <use xlink:href="#Helvetica-57" transform="translate(1662.109375 0)"/>
     </g>
    </g>
   </g>
   <g id="matplotlib.axis_2">
    <g id="ytick_1">
     <g id="line2d_5">
      <defs>
       <path id="mb5adbe88f2" d="M 0 0 
L -3.5 0 
" style="stroke: #454545; stroke-width: 0.8"/>
      </defs>
      <g>
       <use xlink:href="#mb5adbe88f2" x="55.44" y="284.832" style="fill: #454545; stroke: #454545; stroke-width: 0.8"/>
      </g>
     </g>
     <g id="text_6">
      <!-- 0.0 -->
      <g style="fill: #454545" transform="translate(36.625 288.0195) scale(0.085 -0.085)">
       <defs>
        <path id="Helvetica-11" d="M 547 681 
L 1200 681 
L 1200 0 
L 547 0 
L 547 681 
z
" transform="scale(0.015625)"/>
       </defs>
       <use xlink:href="#Helvetica-13"/>
       <use xlink:href="#Helvetica-11" transform="translate(55.609375 0)"/>
       <use xlink:href="#Helvetica-13" transform="translate(83.390625 0)"/>
      </g>
     </g>
    </g>
    <g id="ytick_2">
     <g id="line2d_6">
      <g>
       <use xlink:href="#mb5adbe88f2" x="55.44" y="250.795704" style="fill: #454545; stroke: #454545; stroke-width: 0.8"/>
      </g>
     </g>
     <g id="text_7">
      <!-- 0.1 -->
      <g style="fill: #454545" transform="translate(36.625 253.983204) scale(0.085 -0.085)">
       <defs>
        <path id="Helvetica-14" d="M 613 3169 
L 613 3600 
Q 1222 3659 1462 3798 
Q 1703 3938 1822 4456 
L 2266 4456 
L 2266 0 
L 1666 0 
L 1666 3169 
L 613 3169 
z
" transform="scale(0.015625)"/>
       </defs>
       <use xlink:href="#Helvetica-13"/>
       <use xlink:href="#Helvetica-11" transform="translate(55.609375 0)"/>
       <use xlink:href="#Helvetica-14" transform="translate(83.390625 0)"/>
      </g>
     </g>
    </g>
    <g id="ytick_3">
     <g id="line2d_7">
      <g>
       <use xlink:href="#mb5adbe88f2" x="55.44" y="216.759408" style="fill: #454545; stroke: #454545; stroke-width: 0.8"/>
      </g>
     </g>
     <g id="text_8">
      <!-- 0.2 -->
      <g style="fill: #454545" transform="translate(36.625 219.946908) scale(0.085 -0.085)">
       <defs>
        <path id="Helvetica-15" d="M 200 0 
Q 231 578 439 1006 
Q 647 1434 1250 1784 
L 1850 2131 
Q 2253 2366 2416 2531 
Q 2672 2791 2672 3125 
Q 2672 3516 2437 3745 
Q 2203 3975 1813 3975 
Q 1234 3975 1013 3538 
Q 894 3303 881 2888 
L 309 2888 
Q 319 3472 525 3841 
Q 891 4491 1816 4491 
Q 2584 4491 2939 4075 
Q 3294 3659 3294 3150 
Q 3294 2613 2916 2231 
Q 2697 2009 2131 1694 
L 1703 1456 
Q 1397 1288 1222 1134 
Q 909 863 828 531 
L 3272 531 
L 3272 0 
L 200 0 
z
" transform="scale(0.015625)"/>
       </defs>
       <use xlink:href="#Helvetica-13"/>
       <use xlink:href="#Helvetica-11" transform="translate(55.609375 0)"/>
       <use xlink:href="#Helvetica-15" transform="translate(83.390625 0)"/>
      </g>
     </g>
    </g>
    <g id="ytick_4">
     <g id="line2d_8">
      <g>
       <use xlink:href="#mb5adbe88f2" x="55.44" y="182.723112" style="fill: #454545; stroke: #454545; stroke-width: 0.8"/>
      </g>
     </g>
     <g id="text_9">
      <!-- 0.3 -->
      <g style="fill: #454545" transform="translate(36.625 185.910612) scale(0.085 -0.085)">
       <defs>
        <path id="Helvetica-16" d="M 1663 -122 
Q 869 -122 511 314 
Q 153 750 153 1375 
L 741 1375 
Q 778 941 903 744 
Q 1122 391 1694 391 
Q 2138 391 2406 628 
Q 2675 866 2675 1241 
Q 2675 1703 2392 1887 
Q 2109 2072 1606 2072 
Q 1550 2072 1492 2070 
Q 1434 2069 1375 2066 
L 1375 2563 
Q 1463 2553 1522 2550 
Q 1581 2547 1650 2547 
Q 1966 2547 2169 2647 
Q 2525 2822 2525 3272 
Q 2525 3606 2287 3787 
Q 2050 3969 1734 3969 
Q 1172 3969 956 3594 
Q 838 3388 822 3006 
L 266 3006 
Q 266 3506 466 3856 
Q 809 4481 1675 4481 
Q 2359 4481 2734 4176 
Q 3109 3872 3109 3294 
Q 3109 2881 2888 2625 
Q 2750 2466 2531 2375 
Q 2884 2278 3082 2001 
Q 3281 1725 3281 1325 
Q 3281 684 2859 281 
Q 2438 -122 1663 -122 
z
" transform="scale(0.015625)"/>
       </defs>
       <use xlink:href="#Helvetica-13"/>
       <use xlink:href="#Helvetica-11" transform="translate(55.609375 0)"/>
       <use xlink:href="#Helvetica-16" transform="translate(83.390625 0)"/>
      </g>
     </g>
    </g>
    <g id="ytick_5">
     <g id="line2d_9">
      <g>
       <use xlink:href="#mb5adbe88f2" x="55.44" y="148.686815" style="fill: #454545; stroke: #454545; stroke-width: 0.8"/>
      </g>
     </g>
     <g id="text_10">
      <!-- 0.4 -->
      <g style="fill: #454545" transform="translate(36.625 151.874315) scale(0.085 -0.085)">
       <use xlink:href="#Helvetica-13"/>
       <use xlink:href="#Helvetica-11" transform="translate(55.609375 0)"/>
       <use xlink:href="#Helvetica-17" transform="translate(83.390625 0)"/>
      </g>
     </g>
    </g>
    <g id="ytick_6">
     <g id="line2d_10">
      <g>
       <use xlink:href="#mb5adbe88f2" x="55.44" y="114.650519" style="fill: #454545; stroke: #454545; stroke-width: 0.8"/>
      </g>
     </g>
     <g id="text_11">
      <!-- 0.5 -->
      <g style="fill: #454545" transform="translate(36.625 117.838019) scale(0.085 -0.085)">
       <defs>
        <path id="Helvetica-18" d="M 791 1141 
Q 847 659 1238 475 
Q 1438 381 1700 381 
Q 2200 381 2440 700 
Q 2681 1019 2681 1406 
Q 2681 1875 2395 2131 
Q 2109 2388 1709 2388 
Q 1419 2388 1211 2275 
Q 1003 2163 856 1963 
L 369 1991 
L 709 4400 
L 3034 4400 
L 3034 3856 
L 1131 3856 
L 941 2613 
Q 1097 2731 1238 2791 
Q 1488 2894 1816 2894 
Q 2431 2894 2859 2497 
Q 3288 2100 3288 1491 
Q 3288 856 2895 371 
Q 2503 -113 1644 -113 
Q 1097 -113 676 195 
Q 256 503 206 1141 
L 791 1141 
z
" transform="scale(0.015625)"/>
       </defs>
       <use xlink:href="#Helvetica-13"/>
       <use xlink:href="#Helvetica-11" transform="translate(55.609375 0)"/>
       <use xlink:href="#Helvetica-18" transform="translate(83.390625 0)"/>
      </g>
     </g>
    </g>
    <g id="ytick_7">
     <g id="line2d_11">
      <g>
       <use xlink:href="#mb5adbe88f2" x="55.44" y="80.614223" style="fill: #454545; stroke: #454545; stroke-width: 0.8"/>
      </g>
     </g>
     <g id="text_12">
      <!-- 0.6 -->
      <g style="fill: #454545" transform="translate(36.625 83.801723) scale(0.085 -0.085)">
       <use xlink:href="#Helvetica-13"/>
       <use xlink:href="#Helvetica-11" transform="translate(55.609375 0)"/>
       <use xlink:href="#Helvetica-19" transform="translate(83.390625 0)"/>
      </g>
     </g>
    </g>
    <g id="ytick_8">
     <g id="line2d_12">
      <g>
       <use xlink:href="#mb5adbe88f2" x="55.44" y="46.577927" style="fill: #454545; stroke: #454545; stroke-width: 0.8"/>
      </g>
     </g>
     <g id="text_13">
      <!-- 0.7 -->
      <g style="fill: #454545" transform="translate(36.625 49.765427) scale(0.085 -0.085)">
       <defs>
        <path id="Helvetica-1a" d="M 3347 4400 
L 3347 3909 
Q 3131 3700 2773 3181 
Q 2416 2663 2141 2063 
Q 1869 1478 1728 997 
Q 1638 688 1494 0 
L 872 0 
Q 1084 1281 1809 2550 
Q 2238 3294 2709 3834 
L 234 3834 
L 234 4400 
L 3347 4400 
z
" transform="scale(0.015625)"/>
       </defs>
       <use xlink:href="#Helvetica-13"/>
       <use xlink:href="#Helvetica-11" transform="translate(55.609375 0)"/>
       <use xlink:href="#Helvetica-1a" transform="translate(83.390625 0)"/>
      </g>
     </g>
    </g>
    <g id="text_14">
     <!-- $R^2$ -->
     <g style="fill: #454545" transform="translate(31.010742 171.49) rotate(-90) scale(0.095 -0.095)">
      <defs>
       <path id="DejaVuSans-Oblique-35" d="M 1613 4147 
L 1294 2491 
L 2106 2491 
Q 2584 2491 2879 2755 
Q 3175 3019 3175 3444 
Q 3175 3784 2976 3965 
Q 2778 4147 2406 4147 
L 1613 4147 
z
M 2772 2241 
Q 2972 2194 3105 2009 
Q 3238 1825 3413 1275 
L 3809 0 
L 3144 0 
L 2778 1197 
Q 2638 1659 2453 1815 
Q 2269 1972 1888 1972 
L 1191 1972 
L 806 0 
L 172 0 
L 1081 4666 
L 2503 4666 
Q 3150 4666 3495 4373 
Q 3841 4081 3841 3531 
Q 3841 3044 3547 2687 
Q 3253 2331 2772 2241 
z
" transform="scale(0.015625)"/>
       <path id="DejaVuSans-15" d="M 1228 531 
L 3431 531 
L 3431 0 
L 469 0 
L 469 531 
Q 828 903 1448 1529 
Q 2069 2156 2228 2338 
Q 2531 2678 2651 2914 
Q 2772 3150 2772 3378 
Q 2772 3750 2511 3984 
Q 2250 4219 1831 4219 
Q 1534 4219 1204 4116 
Q 875 4013 500 3803 
L 500 4441 
Q 881 4594 1212 4672 
Q 1544 4750 1819 4750 
Q 2544 4750 2975 4387 
Q 3406 4025 3406 3419 
Q 3406 3131 3298 2873 
Q 3191 2616 2906 2266 
Q 2828 2175 2409 1742 
Q 1991 1309 1228 531 
z
" transform="scale(0.015625)"/>
      </defs>
      <use xlink:href="#DejaVuSans-Oblique-35" transform="translate(0 0.746875)"/>
      <use xlink:href="#DejaVuSans-15" transform="translate(76.499193 42.046875) scale(0.7)"/>
     </g>
    </g>
   </g>
   <g id="patch_7">
    <path d="M 55.44 284.832 
L 55.44 46.368 
" style="fill: none; stroke: #8a8a8a; stroke-width: 0.8; stroke-linejoin: miter; stroke-linecap: square"/>
   </g>
   <g id="patch_8">
    <path d="M 55.44 284.832 
L 362.681379 284.832 
" style="fill: none; stroke: #8a8a8a; stroke-width: 0.8; stroke-linejoin: miter; stroke-linecap: square"/>
   </g>
   <g id="text_15">
    <!-- a -->
    <g style="fill: #111111" transform="translate(12.426207 12.98304) scale(0.15 -0.15)">
     <defs>
      <path id="Helvetica-Bold-44" d="M 544 3038 
Q 897 3488 1756 3488 
Q 2316 3488 2750 3266 
Q 3184 3044 3184 2428 
L 3184 866 
Q 3184 703 3191 472 
Q 3200 297 3244 234 
Q 3288 172 3375 131 
L 3375 0 
L 2406 0 
Q 2366 103 2350 193 
Q 2334 284 2325 400 
Q 2141 200 1900 59 
Q 1613 -106 1250 -106 
Q 788 -106 486 158 
Q 184 422 184 906 
Q 184 1534 669 1816 
Q 934 1969 1450 2034 
L 1753 2072 
Q 2000 2103 2106 2150 
Q 2297 2231 2297 2403 
Q 2297 2613 2151 2692 
Q 2006 2772 1725 2772 
Q 1409 2772 1278 2616 
Q 1184 2500 1153 2303 
L 294 2303 
Q 322 2750 544 3038 
z
M 1206 644 
Q 1331 541 1513 541 
Q 1800 541 2042 709 
Q 2284 878 2294 1325 
L 2294 1656 
Q 2209 1603 2123 1570 
Q 2038 1538 1888 1509 
L 1688 1472 
Q 1406 1422 1284 1350 
Q 1078 1228 1078 972 
Q 1078 744 1206 644 
z
" transform="scale(0.015625)"/>
     </defs>
     <use xlink:href="#Helvetica-Bold-44"/>
    </g>
   </g>
   <g id="text_16">
    <!-- 0.153 -->
    <g style="fill: #111111" transform="translate(81.033484 229.745485) scale(0.08 -0.08)">
     <use xlink:href="#Helvetica-13"/>
     <use xlink:href="#Helvetica-11" transform="translate(55.609375 0)"/>
     <use xlink:href="#Helvetica-14" transform="translate(83.390625 0)"/>
     <use xlink:href="#Helvetica-18" transform="translate(139 0)"/>
     <use xlink:href="#Helvetica-16" transform="translate(194.609375 0)"/>
    </g>
   </g>
   <g id="text_17">
    <!-- 0.254 -->
    <g style="fill: #111111" transform="translate(159.712454 195.235687) scale(0.08 -0.08)">
     <use xlink:href="#Helvetica-13"/>
     <use xlink:href="#Helvetica-11" transform="translate(55.609375 0)"/>
     <use xlink:href="#Helvetica-15" transform="translate(83.390625 0)"/>
     <use xlink:href="#Helvetica-18" transform="translate(139 0)"/>
     <use xlink:href="#Helvetica-17" transform="translate(194.609375 0)"/>
    </g>
   </g>
   <g id="text_18">
    <!-- 0.180 -->
    <g style="fill: #111111" transform="translate(238.391425 220.378455) scale(0.08 -0.08)">
     <use xlink:href="#Helvetica-13"/>
     <use xlink:href="#Helvetica-11" transform="translate(55.609375 0)"/>
     <use xlink:href="#Helvetica-14" transform="translate(83.390625 0)"/>
     <use xlink:href="#Helvetica-1b" transform="translate(139 0)"/>
     <use xlink:href="#Helvetica-13" transform="translate(194.609375 0)"/>
    </g>
   </g>
   <g id="text_19">
    <!-- 0.216 -->
    <g style="fill: #111111" transform="translate(317.070395 208.122444) scale(0.08 -0.08)">
     <use xlink:href="#Helvetica-13"/>
     <use xlink:href="#Helvetica-11" transform="translate(55.609375 0)"/>
     <use xlink:href="#Helvetica-15" transform="translate(83.390625 0)"/>
     <use xlink:href="#Helvetica-14" transform="translate(139 0)"/>
     <use xlink:href="#Helvetica-19" transform="translate(194.609375 0)"/>
    </g>
   </g>
   <g id="text_20">
    <!-- $k_{cat}$ Sequence ID Cutoffs -->
    <g style="fill: #111111" transform="translate(55.44 36.368) scale(0.11 -0.11)">
     <defs>
      <path id="DejaVuSans-Oblique-4e" d="M 1172 4863 
L 1747 4863 
L 1197 2028 
L 3169 3500 
L 3916 3500 
L 1716 1825 
L 3322 0 
L 2625 0 
L 1131 1709 
L 800 0 
L 225 0 
L 1172 4863 
z
" transform="scale(0.015625)"/>
      <path id="DejaVuSans-Oblique-46" d="M 3431 3366 
L 3316 2797 
Q 3109 2947 2876 3022 
Q 2644 3097 2394 3097 
Q 2119 3097 1870 3000 
Q 1622 2903 1453 2725 
Q 1184 2453 1037 2087 
Q 891 1722 891 1331 
Q 891 859 1127 628 
Q 1363 397 1844 397 
Q 2081 397 2348 469 
Q 2616 541 2906 684 
L 2797 116 
Q 2547 13 2283 -39 
Q 2019 -91 1741 -91 
Q 1044 -91 669 257 
Q 294 606 294 1253 
Q 294 1797 489 2255 
Q 684 2713 1069 3078 
Q 1331 3328 1684 3456 
Q 2038 3584 2456 3584 
Q 2700 3584 2940 3529 
Q 3181 3475 3431 3366 
z
" transform="scale(0.015625)"/>
      <path id="DejaVuSans-Oblique-44" d="M 3438 1997 
L 3047 0 
L 2472 0 
L 2578 531 
Q 2325 219 2001 64 
Q 1678 -91 1281 -91 
Q 834 -91 548 182 
Q 263 456 263 884 
Q 263 1497 752 1853 
Q 1241 2209 2100 2209 
L 2900 2209 
L 2931 2363 
Q 2938 2388 2941 2417 
Q 2944 2447 2944 2509 
Q 2944 2788 2717 2942 
Q 2491 3097 2081 3097 
Q 1800 3097 1504 3025 
Q 1209 2953 897 2809 
L 997 3341 
Q 1322 3463 1633 3523 
Q 1944 3584 2234 3584 
Q 2853 3584 3176 3315 
Q 3500 3047 3500 2534 
Q 3500 2431 3484 2292 
Q 3469 2153 3438 1997 
z
M 2816 1759 
L 2241 1759 
Q 1534 1759 1195 1570 
Q 856 1381 856 984 
Q 856 709 1029 553 
Q 1203 397 1509 397 
Q 1978 397 2328 733 
Q 2678 1069 2791 1631 
L 2816 1759 
z
" transform="scale(0.015625)"/>
      <path id="DejaVuSans-Oblique-57" d="M 2706 3500 
L 2619 3053 
L 1472 3053 
L 1100 1153 
Q 1081 1047 1072 975 
Q 1063 903 1063 863 
Q 1063 663 1183 572 
Q 1303 481 1569 481 
L 2150 481 
L 2053 0 
L 1503 0 
Q 991 0 739 200 
Q 488 400 488 806 
Q 488 878 497 964 
Q 506 1050 525 1153 
L 897 3053 
L 409 3053 
L 500 3500 
L 978 3500 
L 1172 4494 
L 1747 4494 
L 1556 3500 
L 2706 3500 
z
" transform="scale(0.015625)"/>
      <path id="Helvetica-Bold-3" transform="scale(0.015625)"/>
      <path id="Helvetica-Bold-36" d="M 2159 666 
Q 2500 666 2713 741 
Q 3116 884 3116 1275 
Q 3116 1503 2916 1628 
Q 2716 1750 2288 1844 
L 1800 1953 
Q 1081 2116 806 2306 
Q 341 2625 341 3303 
Q 341 3922 791 4331 
Q 1241 4741 2113 4741 
Q 2841 4741 3355 4355 
Q 3869 3969 3894 3234 
L 2969 3234 
Q 2944 3650 2606 3825 
Q 2381 3941 2047 3941 
Q 1675 3941 1453 3791 
Q 1231 3641 1231 3372 
Q 1231 3125 1450 3003 
Q 1591 2922 2050 2813 
L 2844 2622 
Q 3366 2497 3631 2288 
Q 4044 1963 4044 1347 
Q 4044 716 3561 298 
Q 3078 -119 2197 -119 
Q 1297 -119 781 292 
Q 266 703 266 1422 
L 1184 1422 
Q 1228 1106 1356 950 
Q 1591 666 2159 666 
z
" transform="scale(0.015625)"/>
      <path id="Helvetica-Bold-48" d="M 3331 1000 
Q 3297 697 3016 384 
Q 2578 -113 1791 -113 
Q 1141 -113 644 306 
Q 147 725 147 1669 
Q 147 2553 595 3025 
Q 1044 3497 1759 3497 
Q 2184 3497 2525 3337 
Q 2866 3178 3088 2834 
Q 3288 2531 3347 2131 
Q 3381 1897 3375 1456 
L 1044 1456 
Q 1063 944 1366 738 
Q 1550 609 1809 609 
Q 2084 609 2256 766 
Q 2350 850 2422 1000 
L 3331 1000 
z
M 2450 2044 
Q 2428 2397 2236 2580 
Q 2044 2763 1759 2763 
Q 1450 2763 1279 2569 
Q 1109 2375 1066 2044 
L 2450 2044 
z
" transform="scale(0.015625)"/>
      <path id="Helvetica-Bold-54" d="M 2613 -1350 
L 2613 422 
Q 2513 216 2270 55 
Q 2028 -106 1609 -106 
Q 1019 -106 603 366 
Q 188 838 188 1625 
Q 188 2475 605 2984 
Q 1022 3494 1634 3494 
Q 2059 3494 2322 3284 
Q 2475 3166 2634 2894 
L 2634 3400 
L 3494 3400 
L 3494 -1350 
L 2613 -1350 
z
M 1209 1084 
Q 1384 656 1859 656 
Q 2319 656 2513 1050 
Q 2638 1309 2638 1706 
Q 2638 2019 2531 2266 
Q 2341 2709 1863 2709 
Q 1525 2709 1320 2450 
Q 1116 2191 1116 1663 
Q 1116 1309 1209 1084 
z
" transform="scale(0.015625)"/>
      <path id="Helvetica-Bold-58" d="M 2600 481 
Q 2588 466 2538 387 
Q 2488 309 2419 250 
Q 2209 63 2014 -6 
Q 1819 -75 1556 -75 
Q 800 -75 538 469 
Q 391 769 391 1353 
L 391 3406 
L 1303 3406 
L 1303 1353 
Q 1303 1063 1372 916 
Q 1494 656 1850 656 
Q 2306 656 2475 1025 
Q 2563 1225 2563 1553 
L 2563 3406 
L 3466 3406 
L 3466 0 
L 2600 0 
L 2600 481 
z
" transform="scale(0.015625)"/>
      <path id="Helvetica-Bold-51" d="M 2019 2747 
Q 1566 2747 1397 2363 
Q 1309 2159 1309 1844 
L 1309 0 
L 422 0 
L 422 3400 
L 1281 3400 
L 1281 2903 
Q 1453 3166 1606 3281 
Q 1881 3488 2303 3488 
Q 2831 3488 3167 3211 
Q 3503 2934 3503 2294 
L 3503 0 
L 2591 0 
L 2591 2072 
Q 2591 2341 2519 2484 
Q 2388 2747 2019 2747 
z
" transform="scale(0.015625)"/>
      <path id="Helvetica-Bold-46" d="M 3363 2184 
L 2450 2184 
Q 2425 2375 2322 2528 
Q 2172 2734 1856 2734 
Q 1406 2734 1241 2288 
Q 1153 2050 1153 1656 
Q 1153 1281 1241 1053 
Q 1400 628 1841 628 
Q 2153 628 2284 797 
Q 2416 966 2444 1234 
L 3353 1234 
Q 3322 828 3059 466 
Q 2641 -119 1819 -119 
Q 997 -119 609 368 
Q 222 856 222 1634 
Q 222 2513 650 3000 
Q 1078 3488 1831 3488 
Q 2472 3488 2880 3200 
Q 3288 2913 3363 2184 
z
" transform="scale(0.015625)"/>
      <path id="Helvetica-Bold-2c" d="M 413 4606 
L 1369 4606 
L 1369 0 
L 413 0 
L 413 4606 
z
" transform="scale(0.015625)"/>
      <path id="Helvetica-Bold-27" d="M 2472 0 
L 488 0 
L 488 4606 
L 2472 4606 
Q 2900 4600 3184 4506 
Q 3669 4347 3969 3922 
Q 4209 3578 4296 3178 
Q 4384 2778 4384 2416 
Q 4384 1497 4016 859 
Q 3516 0 2472 0 
z
M 3188 3431 
Q 2966 3806 2309 3806 
L 1422 3806 
L 1422 800 
L 2309 800 
Q 2991 800 3259 1472 
Q 3406 1841 3406 2350 
Q 3406 3053 3188 3431 
z
" transform="scale(0.015625)"/>
      <path id="Helvetica-Bold-26" d="M 3738 344 
Q 3222 -128 2419 -128 
Q 1425 -128 856 509 
Q 288 1150 288 2266 
Q 288 3472 934 4125 
Q 1497 4694 2366 4694 
Q 3528 4694 4066 3931 
Q 4363 3503 4384 3072 
L 3422 3072 
Q 3328 3403 3181 3572 
Q 2919 3872 2403 3872 
Q 1878 3872 1575 3448 
Q 1272 3025 1272 2250 
Q 1272 1475 1592 1089 
Q 1913 703 2406 703 
Q 2913 703 3178 1034 
Q 3325 1213 3422 1569 
L 4375 1569 
Q 4250 816 3738 344 
z
" transform="scale(0.015625)"/>
      <path id="Helvetica-Bold-57" d="M 1975 634 
L 1975 -31 
L 1553 -47 
Q 922 -69 691 172 
Q 541 325 541 644 
L 541 2741 
L 66 2741 
L 66 3375 
L 541 3375 
L 541 4325 
L 1422 4325 
L 1422 3375 
L 1975 3375 
L 1975 2741 
L 1422 2741 
L 1422 941 
Q 1422 731 1475 679 
Q 1528 628 1800 628 
Q 1841 628 1886 629 
Q 1931 631 1975 634 
z
" transform="scale(0.015625)"/>
      <path id="Helvetica-Bold-52" d="M 3256 2975 
Q 3688 2434 3688 1697 
Q 3688 947 3256 414 
Q 2825 -119 1947 -119 
Q 1069 -119 637 414 
Q 206 947 206 1697 
Q 206 2434 637 2975 
Q 1069 3516 1947 3516 
Q 2825 3516 3256 2975 
z
M 1944 2763 
Q 1553 2763 1342 2486 
Q 1131 2209 1131 1697 
Q 1131 1184 1342 906 
Q 1553 628 1944 628 
Q 2334 628 2543 906 
Q 2753 1184 2753 1697 
Q 2753 2209 2543 2486 
Q 2334 2763 1944 2763 
z
" transform="scale(0.015625)"/>
      <path id="Helvetica-Bold-49" d="M 2013 4634 
L 2013 3909 
Q 1938 3919 1761 3923 
Q 1584 3928 1517 3845 
Q 1450 3763 1450 3663 
L 1450 3375 
L 2034 3375 
L 2034 2747 
L 1450 2747 
L 1450 0 
L 563 0 
L 563 2747 
L 66 2747 
L 66 3375 
L 553 3375 
L 553 3594 
Q 553 4141 738 4347 
Q 931 4653 1672 4653 
Q 1756 4653 1825 4648 
Q 1894 4644 2013 4634 
z
" transform="scale(0.015625)"/>
      <path id="Helvetica-Bold-56" d="M 2763 3250 
Q 3163 2994 3222 2369 
L 2331 2369 
Q 2313 2541 2234 2641 
Q 2088 2822 1734 2822 
Q 1444 2822 1320 2731 
Q 1197 2641 1197 2519 
Q 1197 2366 1328 2297 
Q 1459 2225 2256 2050 
Q 2788 1925 3053 1672 
Q 3316 1416 3316 1031 
Q 3316 525 2939 204 
Q 2563 -116 1775 -116 
Q 972 -116 589 223 
Q 206 563 206 1088 
L 1109 1088 
Q 1138 850 1231 750 
Q 1397 572 1844 572 
Q 2106 572 2261 650 
Q 2416 728 2416 884 
Q 2416 1034 2291 1113 
Q 2166 1191 1363 1381 
Q 784 1525 547 1741 
Q 309 1953 309 2353 
Q 309 2825 679 3164 
Q 1050 3503 1722 3503 
Q 2359 3503 2763 3250 
z
" transform="scale(0.015625)"/>
     </defs>
     <use xlink:href="#DejaVuSans-Oblique-4e" transform="translate(0 0.015625)"/>
     <use xlink:href="#DejaVuSans-Oblique-46" transform="translate(57.910156 -14.984326) scale(0.7)"/>
     <use xlink:href="#DejaVuSans-Oblique-44" transform="translate(96.396484 -14.984326) scale(0.7)"/>
     <use xlink:href="#DejaVuSans-Oblique-57" transform="translate(139.291992 -14.984326) scale(0.7)"/>
     <use xlink:href="#Helvetica-Bold-3" transform="translate(169.472656 0.015625)"/>
     <use xlink:href="#Helvetica-Bold-36" transform="translate(197.255859 0.015625)"/>
     <use xlink:href="#Helvetica-Bold-48" transform="translate(263.955078 0.015625)"/>
     <use xlink:href="#Helvetica-Bold-54" transform="translate(319.570312 0.015625)"/>
     <use xlink:href="#Helvetica-Bold-58" transform="translate(380.654297 0.015625)"/>
     <use xlink:href="#Helvetica-Bold-48" transform="translate(441.738281 0.015625)"/>
     <use xlink:href="#Helvetica-Bold-51" transform="translate(497.353516 0.015625)"/>
     <use xlink:href="#Helvetica-Bold-46" transform="translate(558.4375 0.015625)"/>
     <use xlink:href="#Helvetica-Bold-48" transform="translate(614.052734 0.015625)"/>
     <use xlink:href="#Helvetica-Bold-3" transform="translate(669.667969 0.015625)"/>
     <use xlink:href="#Helvetica-Bold-2c" transform="translate(697.451172 0.015625)"/>
     <use xlink:href="#Helvetica-Bold-27" transform="translate(725.234375 0.015625)"/>
     <use xlink:href="#Helvetica-Bold-3" transform="translate(797.451172 0.015625)"/>
     <use xlink:href="#Helvetica-Bold-26" transform="translate(825.234375 0.015625)"/>
     <use xlink:href="#Helvetica-Bold-58" transform="translate(897.451172 0.015625)"/>
     <use xlink:href="#Helvetica-Bold-57" transform="translate(958.535156 0.015625)"/>
     <use xlink:href="#Helvetica-Bold-52" transform="translate(991.835938 0.015625)"/>
     <use xlink:href="#Helvetica-Bold-49" transform="translate(1052.919922 0.015625)"/>
     <use xlink:href="#Helvetica-Bold-49" transform="translate(1086.220703 0.015625)"/>
     <use xlink:href="#Helvetica-Bold-56" transform="translate(1119.521484 0.015625)"/>
    </g>
   </g>
  </g>
  <g id="axes_2">
   <g id="patch_9">
    <path d="M 460.998621 284.832 
L 768.24 284.832 
L 768.24 46.368 
L 460.998621 46.368 
z
" style="fill: #ffffff"/>
   </g>
   <g id="patch_10">
    <path d="M 474.964138 284.832 
L 518.237572 284.832 
L 518.237572 130.036838 
L 474.964138 130.036838 
z
" clip-path="url(#pe85bb61a73)" style="fill: #b5396f"/>
   </g>
   <g id="patch_11">
    <path d="M 553.643108 284.832 
L 596.916542 284.832 
L 596.916542 77.472 
L 553.643108 77.472 
z
" clip-path="url(#pe85bb61a73)" style="fill: #b5396f"/>
   </g>
   <g id="patch_12">
    <path d="M 632.322079 284.832 
L 675.595512 284.832 
L 675.595512 81.178869 
L 632.322079 81.178869 
z
" clip-path="url(#pe85bb61a73)" style="fill: #b5396f"/>
   </g>
   <g id="patch_13">
    <path d="M 711.001049 284.832 
L 754.274483 284.832 
L 754.274483 88.610548 
L 711.001049 88.610548 
z
" clip-path="url(#pe85bb61a73)" style="fill: #b5396f"/>
   </g>
   <g id="matplotlib.axis_3">
    <g id="xtick_5">
     <g id="line2d_13">
      <g>
       <use xlink:href="#m5e0291a04e" x="496.600855" y="284.832" style="fill: #454545; stroke: #454545; stroke-width: 0.8"/>
      </g>
     </g>
     <g id="text_21">
      <!-- &lt;= 40% -->
      <g style="fill: #454545" transform="translate(480.225972 298.957) scale(0.095 -0.095)">
       <use xlink:href="#Helvetica-1f"/>
       <use xlink:href="#Helvetica-20" transform="translate(58.40625 0)"/>
       <use xlink:href="#Helvetica-3" transform="translate(116.8125 0)"/>
       <use xlink:href="#Helvetica-17" transform="translate(144.59375 0)"/>
       <use xlink:href="#Helvetica-13" transform="translate(200.203125 0)"/>
       <use xlink:href="#Helvetica-8" transform="translate(255.8125 0)"/>
      </g>
     </g>
    </g>
    <g id="xtick_6">
     <g id="line2d_14">
      <g>
       <use xlink:href="#m5e0291a04e" x="575.279825" y="284.832" style="fill: #454545; stroke: #454545; stroke-width: 0.8"/>
      </g>
     </g>
     <g id="text_22">
      <!-- &lt;= 60% -->
      <g style="fill: #454545" transform="translate(558.904942 298.957) scale(0.095 -0.095)">
       <use xlink:href="#Helvetica-1f"/>
       <use xlink:href="#Helvetica-20" transform="translate(58.40625 0)"/>
       <use xlink:href="#Helvetica-3" transform="translate(116.8125 0)"/>
       <use xlink:href="#Helvetica-19" transform="translate(144.59375 0)"/>
       <use xlink:href="#Helvetica-13" transform="translate(200.203125 0)"/>
       <use xlink:href="#Helvetica-8" transform="translate(255.8125 0)"/>
      </g>
     </g>
    </g>
    <g id="xtick_7">
     <g id="line2d_15">
      <g>
       <use xlink:href="#m5e0291a04e" x="653.958796" y="284.832" style="fill: #454545; stroke: #454545; stroke-width: 0.8"/>
      </g>
     </g>
     <g id="text_23">
      <!-- &lt;= 80% -->
      <g style="fill: #454545" transform="translate(637.583913 298.957) scale(0.095 -0.095)">
       <use xlink:href="#Helvetica-1f"/>
       <use xlink:href="#Helvetica-20" transform="translate(58.40625 0)"/>
       <use xlink:href="#Helvetica-3" transform="translate(116.8125 0)"/>
       <use xlink:href="#Helvetica-1b" transform="translate(144.59375 0)"/>
       <use xlink:href="#Helvetica-13" transform="translate(200.203125 0)"/>
       <use xlink:href="#Helvetica-8" transform="translate(255.8125 0)"/>
      </g>
     </g>
    </g>
    <g id="xtick_8">
     <g id="line2d_16">
      <g>
       <use xlink:href="#m5e0291a04e" x="732.637766" y="284.832" style="fill: #454545; stroke: #454545; stroke-width: 0.8"/>
      </g>
     </g>
     <g id="text_24">
      <!-- &lt;= 99% -->
      <g style="fill: #454545" transform="translate(716.262883 298.957) scale(0.095 -0.095)">
       <use xlink:href="#Helvetica-1f"/>
       <use xlink:href="#Helvetica-20" transform="translate(58.40625 0)"/>
       <use xlink:href="#Helvetica-3" transform="translate(116.8125 0)"/>
       <use xlink:href="#Helvetica-1c" transform="translate(144.59375 0)"/>
       <use xlink:href="#Helvetica-1c" transform="translate(200.203125 0)"/>
       <use xlink:href="#Helvetica-8" transform="translate(255.8125 0)"/>
      </g>
     </g>
    </g>
    <g id="text_25">
     <!-- Max Sequence Identity to Training Set -->
     <g style="fill: #454545" transform="translate(534.349506 311.696258) scale(0.095 -0.095)">
      <use xlink:href="#Helvetica-30"/>
      <use xlink:href="#Helvetica-44" transform="translate(83.296875 0)"/>
      <use xlink:href="#Helvetica-5b" transform="translate(138.90625 0)"/>
      <use xlink:href="#Helvetica-3" transform="translate(188.90625 0)"/>
      <use xlink:href="#Helvetica-36" transform="translate(216.6875 0)"/>
      <use xlink:href="#Helvetica-48" transform="translate(283.390625 0)"/>
      <use xlink:href="#Helvetica-54" transform="translate(339 0)"/>
      <use xlink:href="#Helvetica-58" transform="translate(394.609375 0)"/>
      <use xlink:href="#Helvetica-48" transform="translate(450.21875 0)"/>
      <use xlink:href="#Helvetica-51" transform="translate(505.828125 0)"/>
      <use xlink:href="#Helvetica-46" transform="translate(561.4375 0)"/>
      <use xlink:href="#Helvetica-48" transform="translate(611.4375 0)"/>
      <use xlink:href="#Helvetica-3" transform="translate(667.046875 0)"/>
      <use xlink:href="#Helvetica-2c" transform="translate(694.828125 0)"/>
      <use xlink:href="#Helvetica-47" transform="translate(722.609375 0)"/>
      <use xlink:href="#Helvetica-48" transform="translate(778.21875 0)"/>
      <use xlink:href="#Helvetica-51" transform="translate(833.828125 0)"/>
      <use xlink:href="#Helvetica-57" transform="translate(889.4375 0)"/>
      <use xlink:href="#Helvetica-4c" transform="translate(917.21875 0)"/>
      <use xlink:href="#Helvetica-57" transform="translate(939.4375 0)"/>
      <use xlink:href="#Helvetica-5c" transform="translate(967.21875 0)"/>
      <use xlink:href="#Helvetica-3" transform="translate(1017.21875 0)"/>
      <use xlink:href="#Helvetica-57" transform="translate(1045 0)"/>
      <use xlink:href="#Helvetica-52" transform="translate(1072.78125 0)"/>
      <use xlink:href="#Helvetica-3" transform="translate(1128.390625 0)"/>
      <use xlink:href="#Helvetica-37" transform="translate(1154.421875 0)"/>
      <use xlink:href="#Helvetica-55" transform="translate(1211.84375 0)"/>
      <use xlink:href="#Helvetica-44" transform="translate(1245.140625 0)"/>
      <use xlink:href="#Helvetica-4c" transform="translate(1300.75 0)"/>
      <use xlink:href="#Helvetica-51" transform="translate(1322.96875 0)"/>
      <use xlink:href="#Helvetica-4c" transform="translate(1378.578125 0)"/>
      <use xlink:href="#Helvetica-51" transform="translate(1400.796875 0)"/>
      <use xlink:href="#Helvetica-4a" transform="translate(1456.40625 0)"/>
      <use xlink:href="#Helvetica-3" transform="translate(1512.015625 0)"/>
      <use xlink:href="#Helvetica-36" transform="translate(1539.796875 0)"/>
      <use xlink:href="#Helvetica-48" transform="translate(1606.5 0)"/>
      <use xlink:href="#Helvetica-57" transform="translate(1662.109375 0)"/>
     </g>
    </g>
   </g>
   <g id="matplotlib.axis_4">
    <g id="ytick_9">
     <g id="line2d_17">
      <g>
       <use xlink:href="#mb5adbe88f2" x="460.998621" y="284.832" style="fill: #454545; stroke: #454545; stroke-width: 0.8"/>
      </g>
     </g>
     <g id="text_26">
      <!-- 0.0 -->
      <g style="fill: #454545" transform="translate(442.183621 288.0195) scale(0.085 -0.085)">
       <use xlink:href="#Helvetica-13"/>
       <use xlink:href="#Helvetica-11" transform="translate(55.609375 0)"/>
       <use xlink:href="#Helvetica-13" transform="translate(83.390625 0)"/>
      </g>
     </g>
    </g>
    <g id="ytick_10">
     <g id="line2d_18">
      <g>
       <use xlink:href="#mb5adbe88f2" x="460.998621" y="250.795704" style="fill: #454545; stroke: #454545; stroke-width: 0.8"/>
      </g>
     </g>
     <g id="text_27">
      <!-- 0.1 -->
      <g style="fill: #454545" transform="translate(442.183621 253.983204) scale(0.085 -0.085)">
       <use xlink:href="#Helvetica-13"/>
       <use xlink:href="#Helvetica-11" transform="translate(55.609375 0)"/>
       <use xlink:href="#Helvetica-14" transform="translate(83.390625 0)"/>
      </g>
     </g>
    </g>
    <g id="ytick_11">
     <g id="line2d_19">
      <g>
       <use xlink:href="#mb5adbe88f2" x="460.998621" y="216.759408" style="fill: #454545; stroke: #454545; stroke-width: 0.8"/>
      </g>
     </g>
     <g id="text_28">
      <!-- 0.2 -->
      <g style="fill: #454545" transform="translate(442.183621 219.946908) scale(0.085 -0.085)">
       <use xlink:href="#Helvetica-13"/>
       <use xlink:href="#Helvetica-11" transform="translate(55.609375 0)"/>
       <use xlink:href="#Helvetica-15" transform="translate(83.390625 0)"/>
      </g>
     </g>
    </g>
    <g id="ytick_12">
     <g id="line2d_20">
      <g>
       <use xlink:href="#mb5adbe88f2" x="460.998621" y="182.723112" style="fill: #454545; stroke: #454545; stroke-width: 0.8"/>
      </g>
     </g>
     <g id="text_29">
      <!-- 0.3 -->
      <g style="fill: #454545" transform="translate(442.183621 185.910612) scale(0.085 -0.085)">
       <use xlink:href="#Helvetica-13"/>
       <use xlink:href="#Helvetica-11" transform="translate(55.609375 0)"/>
       <use xlink:href="#Helvetica-16" transform="translate(83.390625 0)"/>
      </g>
     </g>
    </g>
    <g id="ytick_13">
     <g id="line2d_21">
      <g>
       <use xlink:href="#mb5adbe88f2" x="460.998621" y="148.686815" style="fill: #454545; stroke: #454545; stroke-width: 0.8"/>
      </g>
     </g>
     <g id="text_30">
      <!-- 0.4 -->
      <g style="fill: #454545" transform="translate(442.183621 151.874315) scale(0.085 -0.085)">
       <use xlink:href="#Helvetica-13"/>
       <use xlink:href="#Helvetica-11" transform="translate(55.609375 0)"/>
       <use xlink:href="#Helvetica-17" transform="translate(83.390625 0)"/>
      </g>
     </g>
    </g>
    <g id="ytick_14">
     <g id="line2d_22">
      <g>
       <use xlink:href="#mb5adbe88f2" x="460.998621" y="114.650519" style="fill: #454545; stroke: #454545; stroke-width: 0.8"/>
      </g>
     </g>
     <g id="text_31">
      <!-- 0.5 -->
      <g style="fill: #454545" transform="translate(442.183621 117.838019) scale(0.085 -0.085)">
       <use xlink:href="#Helvetica-13"/>
       <use xlink:href="#Helvetica-11" transform="translate(55.609375 0)"/>
       <use xlink:href="#Helvetica-18" transform="translate(83.390625 0)"/>
      </g>
     </g>
    </g>
    <g id="ytick_15">
     <g id="line2d_23">
      <g>
       <use xlink:href="#mb5adbe88f2" x="460.998621" y="80.614223" style="fill: #454545; stroke: #454545; stroke-width: 0.8"/>
      </g>
     </g>
     <g id="text_32">
      <!-- 0.6 -->
      <g style="fill: #454545" transform="translate(442.183621 83.801723) scale(0.085 -0.085)">
       <use xlink:href="#Helvetica-13"/>
       <use xlink:href="#Helvetica-11" transform="translate(55.609375 0)"/>
       <use xlink:href="#Helvetica-19" transform="translate(83.390625 0)"/>
      </g>
     </g>
    </g>
    <g id="ytick_16">
     <g id="line2d_24">
      <g>
       <use xlink:href="#mb5adbe88f2" x="460.998621" y="46.577927" style="fill: #454545; stroke: #454545; stroke-width: 0.8"/>
      </g>
     </g>
     <g id="text_33">
      <!-- 0.7 -->
      <g style="fill: #454545" transform="translate(442.183621 49.765427) scale(0.085 -0.085)">
       <use xlink:href="#Helvetica-13"/>
       <use xlink:href="#Helvetica-11" transform="translate(55.609375 0)"/>
       <use xlink:href="#Helvetica-1a" transform="translate(83.390625 0)"/>
      </g>
     </g>
    </g>
    <g id="text_34">
     <!-- $R^2$ -->
     <g style="fill: #454545" transform="translate(436.569363 171.49) rotate(-90) scale(0.095 -0.095)">
      <use xlink:href="#DejaVuSans-Oblique-35" transform="translate(0 0.746875)"/>
      <use xlink:href="#DejaVuSans-15" transform="translate(76.499193 42.046875) scale(0.7)"/>
     </g>
    </g>
   </g>
   <g id="patch_14">
    <path d="M 460.998621 284.832 
L 460.998621 46.368 
" style="fill: none; stroke: #8a8a8a; stroke-width: 0.8; stroke-linejoin: miter; stroke-linecap: square"/>
   </g>
   <g id="patch_15">
    <path d="M 460.998621 284.832 
L 768.24 284.832 
" style="fill: none; stroke: #8a8a8a; stroke-width: 0.8; stroke-linejoin: miter; stroke-linecap: square"/>
   </g>
   <g id="text_35">
    <!-- b -->
    <g style="fill: #111111" transform="translate(417.984828 12.98304) scale(0.15 -0.15)">
     <defs>
      <path id="Helvetica-Bold-45" d="M 2266 -91 
Q 1844 -91 1588 78 
Q 1434 178 1256 428 
L 1256 0 
L 384 0 
L 384 4600 
L 1272 4600 
L 1272 2963 
Q 1441 3200 1644 3325 
Q 1884 3481 2256 3481 
Q 2928 3481 3308 2997 
Q 3688 2513 3688 1747 
Q 3688 953 3313 431 
Q 2938 -91 2266 -91 
z
M 2753 1653 
Q 2753 2016 2659 2253 
Q 2481 2703 2003 2703 
Q 1519 2703 1338 2263 
Q 1244 2028 1244 1656 
Q 1244 1219 1437 931 
Q 1631 644 2028 644 
Q 2372 644 2562 922 
Q 2753 1200 2753 1653 
z
" transform="scale(0.015625)"/>
     </defs>
     <use xlink:href="#Helvetica-Bold-45"/>
    </g>
   </g>
   <g id="text_36">
    <!-- 0.455 -->
    <g style="fill: #111111" transform="translate(486.592105 126.960522) scale(0.08 -0.08)">
     <use xlink:href="#Helvetica-13"/>
     <use xlink:href="#Helvetica-11" transform="translate(55.609375 0)"/>
     <use xlink:href="#Helvetica-17" transform="translate(83.390625 0)"/>
     <use xlink:href="#Helvetica-18" transform="translate(139 0)"/>
     <use xlink:href="#Helvetica-18" transform="translate(194.609375 0)"/>
    </g>
   </g>
   <g id="text_37">
    <!-- 0.609 -->
    <g style="fill: #111111" transform="translate(565.271075 74.395684) scale(0.08 -0.08)">
     <use xlink:href="#Helvetica-13"/>
     <use xlink:href="#Helvetica-11" transform="translate(55.609375 0)"/>
     <use xlink:href="#Helvetica-19" transform="translate(83.390625 0)"/>
     <use xlink:href="#Helvetica-13" transform="translate(139 0)"/>
     <use xlink:href="#Helvetica-1c" transform="translate(194.609375 0)"/>
    </g>
   </g>
   <g id="text_38">
    <!-- 0.598 -->
    <g style="fill: #111111" transform="translate(643.950046 78.102553) scale(0.08 -0.08)">
     <use xlink:href="#Helvetica-13"/>
     <use xlink:href="#Helvetica-11" transform="translate(55.609375 0)"/>
     <use xlink:href="#Helvetica-18" transform="translate(83.390625 0)"/>
     <use xlink:href="#Helvetica-1c" transform="translate(139 0)"/>
     <use xlink:href="#Helvetica-1b" transform="translate(194.609375 0)"/>
    </g>
   </g>
   <g id="text_39">
    <!-- 0.577 -->
    <g style="fill: #111111" transform="translate(722.629016 85.534232) scale(0.08 -0.08)">
     <use xlink:href="#Helvetica-13"/>
     <use xlink:href="#Helvetica-11" transform="translate(55.609375 0)"/>
     <use xlink:href="#Helvetica-18" transform="translate(83.390625 0)"/>
     <use xlink:href="#Helvetica-1a" transform="translate(139 0)"/>
     <use xlink:href="#Helvetica-1a" transform="translate(194.609375 0)"/>
    </g>
   </g>
   <g id="text_40">
    <!-- $K_m$ Sequence ID Cutoffs -->
    <g style="fill: #111111" transform="translate(460.998621 36.368) scale(0.11 -0.11)">
     <defs>
      <path id="DejaVuSans-Oblique-2e" d="M 1081 4666 
L 1716 4666 
L 1331 2700 
L 3781 4666 
L 4622 4666 
L 1850 2438 
L 3878 0 
L 3109 0 
L 1247 2272 
L 806 0 
L 172 0 
L 1081 4666 
z
" transform="scale(0.015625)"/>
      <path id="DejaVuSans-Oblique-50" d="M 5747 2113 
L 5338 0 
L 4763 0 
L 5166 2094 
Q 5191 2228 5203 2325 
Q 5216 2422 5216 2491 
Q 5216 2772 5059 2928 
Q 4903 3084 4622 3084 
Q 4203 3084 3875 2770 
Q 3547 2456 3450 1953 
L 3066 0 
L 2491 0 
L 2900 2094 
Q 2925 2209 2937 2307 
Q 2950 2406 2950 2484 
Q 2950 2769 2794 2926 
Q 2638 3084 2363 3084 
Q 1938 3084 1609 2770 
Q 1281 2456 1184 1953 
L 800 0 
L 225 0 
L 909 3500 
L 1484 3500 
L 1375 2956 
Q 1609 3263 1923 3423 
Q 2238 3584 2597 3584 
Q 2978 3584 3223 3384 
Q 3469 3184 3519 2828 
Q 3781 3197 4126 3390 
Q 4472 3584 4856 3584 
Q 5306 3584 5551 3325 
Q 5797 3066 5797 2591 
Q 5797 2488 5784 2364 
Q 5772 2241 5747 2113 
z
" transform="scale(0.015625)"/>
     </defs>
     <use xlink:href="#DejaVuSans-Oblique-2e" transform="translate(0 0.921875)"/>
     <use xlink:href="#DejaVuSans-Oblique-50" transform="translate(65.576172 -14.078076) scale(0.7)"/>
     <use xlink:href="#Helvetica-Bold-3" transform="translate(136.499023 0.921875)"/>
     <use xlink:href="#Helvetica-Bold-36" transform="translate(164.282227 0.921875)"/>
     <use xlink:href="#Helvetica-Bold-48" transform="translate(230.981445 0.921875)"/>
     <use xlink:href="#Helvetica-Bold-54" transform="translate(286.59668 0.921875)"/>
     <use xlink:href="#Helvetica-Bold-58" transform="translate(347.680664 0.921875)"/>
     <use xlink:href="#Helvetica-Bold-48" transform="translate(408.764648 0.921875)"/>
     <use xlink:href="#Helvetica-Bold-51" transform="translate(464.379883 0.921875)"/>
     <use xlink:href="#Helvetica-Bold-46" transform="translate(525.463867 0.921875)"/>
     <use xlink:href="#Helvetica-Bold-48" transform="translate(581.079102 0.921875)"/>
     <use xlink:href="#Helvetica-Bold-3" transform="translate(636.694336 0.921875)"/>
     <use xlink:href="#Helvetica-Bold-2c" transform="translate(664.477539 0.921875)"/>
     <use xlink:href="#Helvetica-Bold-27" transform="translate(692.260742 0.921875)"/>
     <use xlink:href="#Helvetica-Bold-3" transform="translate(764.477539 0.921875)"/>
     <use xlink:href="#Helvetica-Bold-26" transform="translate(792.260742 0.921875)"/>
     <use xlink:href="#Helvetica-Bold-58" transform="translate(864.477539 0.921875)"/>
     <use xlink:href="#Helvetica-Bold-57" transform="translate(925.561523 0.921875)"/>
     <use xlink:href="#Helvetica-Bold-52" transform="translate(958.862305 0.921875)"/>
     <use xlink:href="#Helvetica-Bold-49" transform="translate(1019.946289 0.921875)"/>
     <use xlink:href="#Helvetica-Bold-49" transform="translate(1053.24707 0.921875)"/>
     <use xlink:href="#Helvetica-Bold-56" transform="translate(1086.547852 0.921875)"/>
    </g>
   </g>
  </g>
 </g>
 <defs>
  <clipPath id="p4ca52d60d2">
   <rect x="55.44" y="46.368" width="307.241379" height="238.464"/>
  </clipPath>
  <clipPath id="pe85bb61a73">
   <rect x="460.998621" y="46.368" width="307.241379" height="238.464"/>
  </clipPath>
 </defs>
</svg>
